<?xml version="1.0" ?><svg height="297.000000mm" version="1.0" viewBox="0 0 794 1123" width="210.000000mm" xmlns="http://www.w3.org/2000/svg">
  <g font-family="Helvetica" font-size="12pt" stroke-linecap="round">
    <g stroke="#000000" stroke-width="1.0">
      <line x1="53.07" x2="76.00" y1="172.69" y2="159.47"/>
    </g>
    <g stroke="#000000" stroke-width="1.0">
      <line x1="76.78" x2="75.21" y1="163.25" y2="163.25"/>
      <line x1="77.07" x2="74.93" y1="167.03" y2="167.03"/>
      <line x1="77.35" x2="74.64" y1="170.81" y2="170.81"/>
      <line x1="77.64" x2="74.35" y1="174.60" y2="174.60"/>
      <line x1="77.92" x2="74.06" y1="178.38" y2="178.38"/>
      <line x1="78.20" x2="73.78" y1="182.16" y2="182.16"/>
      <line x1="78.49" x2="73.49" y1="185.94" y2="185.94"/>
    </g>
    <g stroke="#000000" stroke-width="1.0">
      <line x1="53.07" x2="30.14" y1="119.78" y2="133.00"/>
    </g>
    <g stroke="#000000" stroke-width="1.0">
      <line x1="76.00" x2="76.00" y1="159.47" y2="133.00"/>
    </g>
    <g stroke="#000000" stroke-width="1.0">
      <line x1="75.21" x2="76.78" y1="129.22" y2="129.22"/>
      <line x1="74.93" x2="77.07" y1="125.44" y2="125.44"/>
      <line x1="74.64" x2="77.35" y1="121.66" y2="121.66"/>
      <line x1="74.35" x2="77.64" y1="117.88" y2="117.87"/>
      <line x1="74.06" x2="77.92" y1="114.09" y2="114.09"/>
      <line x1="73.78" x2="78.20" y1="110.31" y2="110.31"/>
      <line x1="73.49" x2="78.49" y1="106.53" y2="106.53"/>
    </g>
    <g stroke="#000000" stroke-width="1.0">
      <polygon fill="#000000" points="52.59 172.82 45.44 153.64 50.27 152.36 53.55 172.56" stroke="#000000"/>
    </g>
    <g stroke="#000000" stroke-width="1.0">
      <line x1="76.00" x2="101.92" y1="159.47" y2="170.71"/>
    </g>
    <g stroke="#000000" stroke-width="1.0">
      <polygon fill="#000000" points="53.55 119.91 50.93 137.64 46.10 136.36 52.59 119.65" stroke="#000000"/>
    </g>
    <g stroke="#000000" stroke-width="1.0">
      <line x1="101.92" x2="117.00" y1="121.76" y2="139.11"/>
    </g>
    <g stroke="#000000" stroke-width="1.0">
      <line x1="101.92" x2="117.37" y1="170.71" y2="154.00"/>
    </g>
    <g stroke="#000000" stroke-width="1.0">
      <line x1="100.01" x2="105.97" y1="121.18" y2="101.42"/>
      <line x1="103.83" x2="109.80" y1="122.34" y2="102.58"/>
    </g>
    <g stroke="#000000" stroke-width="1.0">
      <line x1="30.14" x2="53.07" y1="159.47" y2="172.69"/>
    </g>
    <g stroke="#000000" stroke-width="1.0">
      <line x1="76.00" x2="53.07" y1="133.00" y2="119.78"/>
    </g>
    <g stroke="#000000" stroke-width="1.0">
      <line x1="103.81" x2="109.45" y1="170.06" y2="186.35"/>
      <line x1="100.03" x2="105.67" y1="171.37" y2="187.65"/>
    </g>
    <g stroke="#000000" stroke-width="1.0">
      <line x1="30.14" x2="30.14" y1="133.00" y2="159.47"/>
    </g>
    <g stroke="#000000" stroke-width="1.0">
      <line x1="76.00" x2="101.92" y1="133.00" y2="121.76"/>
    </g>
    <text fill="#000000" font-family="helvetica" font-size="12pt" x="40.30" y="150.25">O</text>
    <text fill="#000000" font-family="helvetica" font-size="12pt" x="118.30" y="150.99">O</text>
    <text fill="#000000" font-family="helvetica" font-size="12pt" x="104.30" y="99.29">O</text>
    <text fill="#000000" font-family="helvetica" font-size="12pt" x="105.30" y="200.28">O</text>
  </g>
</svg>