<?xml version="1.0" ?><svg height="297.000000mm" version="1.0" viewBox="0 0 775 1096" width="210.000000mm" xmlns="http://www.w3.org/2000/svg">
  <g font-family="Helvetica" font-size="12pt" stroke-linecap="round">
    <g stroke="#000000" stroke-width="1.0">
      <line x1="289.61" x2="304.13" y1="215.55" y2="194.17"/>
    </g>
    <g stroke="#000000" stroke-width="1.0">
      <line x1="337.91" x2="323.39" y1="263.96" y2="285.34"/>
    </g>
    <g stroke="#000000" stroke-linecap="butt" stroke-width="1.0">
      <line x1="277.90" x2="284.81" y1="169.82" y2="170.32"/>
    </g>
    <g stroke="#000000" stroke-width="1.0">
      <line x1="415.24" x2="403.98" y1="269.60" y2="246.34"/>
      <line x1="408.43" x2="399.99" y1="269.31" y2="251.86"/>
    </g>
    <g stroke="#000000" stroke-width="1.0">
      <line x1="329.91" x2="341.17" y1="196.05" y2="219.31"/>
      <line x1="325.91" x2="334.36" y1="201.57" y2="219.02"/>
    </g>
    <g stroke="#000000" stroke-width="1.0">
      <line x1="323.39" x2="334.66" y1="285.34" y2="308.61"/>
      <line x1="319.40" x2="327.85" y1="290.87" y2="308.31"/>
    </g>
    <g stroke="#000000" stroke-width="1.0">
      <line x1="326.65" x2="300.87" y1="240.70" y2="238.82"/>
    </g>
    <g stroke="#000000" stroke-width="1.0">
      <line x1="304.13" x2="329.91" y1="194.17" y2="196.05"/>
    </g>
    <g stroke="#000000" stroke-width="1.0">
      <line x1="294.36" x2="285.38" y1="328.11" y2="341.34"/>
    </g>
    <g stroke="#000000" stroke-width="1.0">
      <line x1="320.14" x2="294.36" y1="329.99" y2="328.11"/>
      <line x1="317.35" x2="298.02" y1="323.77" y2="322.36"/>
    </g>
    <g stroke="#000000" stroke-width="1.0">
      <line x1="283.10" x2="257.32" y1="304.85" y2="302.97"/>
    </g>
    <g stroke="#000000" stroke-width="1.0">
      <line x1="334.66" x2="320.14" y1="308.61" y2="329.99"/>
    </g>
    <g stroke="#000000" stroke-width="1.0">
      <line x1="294.36" x2="283.10" y1="328.11" y2="304.85"/>
    </g>
    <g stroke="#000000" stroke-width="1.0">
      <line x1="326.65" x2="337.91" y1="240.70" y2="263.96"/>
      <line x1="333.46" x2="341.90" y1="240.99" y2="258.44"/>
    </g>
    <g stroke="#000000" stroke-width="1.0">
      <line x1="378.20" x2="363.69" y1="244.46" y2="265.84"/>
      <line x1="381.35" x2="370.47" y1="250.50" y2="266.54"/>
    </g>
    <g stroke="#000000" stroke-width="1.0">
      <line x1="300.87" x2="289.61" y1="238.82" y2="215.55"/>
      <line x1="304.87" x2="296.42" y1="233.30" y2="215.85"/>
    </g>
    <g stroke="#000000" stroke-width="1.0">
      <line x1="374.95" x2="400.73" y1="289.10" y2="290.98"/>
      <line x1="378.61" x2="397.94" y1="283.35" y2="284.76"/>
    </g>
    <g stroke="#000000" stroke-width="1.0">
      <line x1="415.24" x2="433.50" y1="269.60" y2="270.93"/>
    </g>
    <g stroke="#000000" stroke-width="1.0">
      <line x1="403.98" x2="378.20" y1="246.34" y2="244.46"/>
    </g>
    <g stroke="#000000" stroke-width="1.0">
      <line x1="297.62" x2="323.39" y1="283.46" y2="285.34"/>
    </g>
    <g stroke="#000000" stroke-width="1.0">
      <line x1="301.18" x2="304.13" y1="188.08" y2="194.17"/>
      <line x1="296.15" x2="298.36" y1="191.45" y2="196.02"/>
    </g>
    <g stroke="#000000" stroke-width="1.0">
      <line x1="400.73" x2="415.24" y1="290.98" y2="269.60"/>
    </g>
    <g stroke="#000000" stroke-width="1.0">
      <line x1="363.69" x2="374.95" y1="265.84" y2="289.10"/>
    </g>
    <g stroke="#000000" stroke-width="1.0">
      <line x1="341.17" x2="326.65" y1="219.31" y2="240.70"/>
    </g>
    <g stroke="#000000" stroke-width="1.0">
      <line x1="283.10" x2="297.62" y1="304.85" y2="283.46"/>
      <line x1="289.88" x2="300.77" y1="305.54" y2="289.51"/>
    </g>
    <g stroke="#000000" stroke-width="1.0">
      <line x1="337.91" x2="363.69" y1="263.96" y2="265.84"/>
    </g>
    <text fill="#000000" font-family="helvetica" font-size="12pt" x="261.30" y="173.03">Cl<tspan baseline-shift="super" font-size="75%">-</tspan></text>
    <text fill="#000000" font-family="helvetica" font-size="12pt" x="287.30" y="174.91">NH<tspan baseline-shift="sub" font-size="75%">2</tspan><tspan baseline-shift="super" font-size="75%">+</tspan></text>
    <text fill="#000000" font-family="helvetica" font-size="12pt" x="274.30" y="353.49">NH<tspan baseline-shift="sub" font-size="75%">2</tspan></text>
    <text fill="#000000" font-family="helvetica" font-size="12pt" x="435.30" y="275.48">NH<tspan baseline-shift="sub" font-size="75%">2</tspan></text>
  </g>
</svg>