<?xml version="1.0" ?><svg height="297.000000mm" version="1.0" viewBox="0 0 794 1123" width="210.000000mm" xmlns="http://www.w3.org/2000/svg">
  <g font-family="Helvetica" font-size="12pt" stroke-linecap="round">
    <g stroke="#000000" stroke-width="1.0">
      <line x1="139.14" x2="139.33" y1="64.00" y2="82.15"/>
    </g>
    <g stroke="#000000" stroke-width="1.0">
      <line x1="139.33" x2="116.54" y1="82.15" y2="95.64"/>
    </g>
    <g stroke="#000000" stroke-width="1.0">
      <line x1="116.54" x2="116.82" y1="95.64" y2="122.13"/>
    </g>
    <g stroke="#000000" stroke-width="1.0">
      <line x1="94.03" x2="94.31" y1="135.62" y2="162.11"/>
    </g>
    <g stroke="#000000" stroke-width="1.0">
      <line x1="94.31" x2="117.39" y1="162.11" y2="175.10"/>
    </g>
    <g stroke="#000000" stroke-width="1.0">
      <line x1="161.84" x2="158.00" y1="42.18" y2="44.45"/>
    </g>
    <g stroke="#000000" stroke-width="1.0">
      <line x1="117.39" x2="140.19" y1="175.10" y2="161.61"/>
      <line x1="117.19" x2="134.28" y1="168.25" y2="158.13"/>
    </g>
    <g stroke="#000000" stroke-width="1.0">
      <line x1="140.19" x2="139.90" y1="161.61" y2="135.12"/>
    </g>
    <g stroke="#000000" stroke-width="1.0">
      <line x1="139.90" x2="116.82" y1="135.12" y2="122.13"/>
      <line x1="134.07" x2="116.76" y1="138.73" y2="128.98"/>
    </g>
    <g stroke="#000000" stroke-width="1.0">
      <line x1="94.31" x2="71.52" y1="162.11" y2="175.60"/>
      <line x1="88.41" x2="71.31" y1="158.63" y2="168.75"/>
    </g>
    <g stroke="#000000" stroke-width="1.0">
      <line x1="116.82" x2="94.03" y1="122.13" y2="135.62"/>
    </g>
    <g stroke="#000000" stroke-width="1.0">
      <line x1="71.52" x2="48.44" y1="175.60" y2="162.60"/>
    </g>
    <g stroke="#000000" stroke-width="1.0">
      <line x1="48.44" x2="48.15" y1="162.60" y2="136.11"/>
      <line x1="54.40" x2="54.19" y1="159.22" y2="139.36"/>
    </g>
    <g stroke="#000000" stroke-width="1.0">
      <line x1="48.15" x2="33.41" y1="136.11" y2="127.81"/>
    </g>
    <g stroke="#000000" stroke-width="1.0">
      <line x1="161.84" x2="161.55" y1="42.18" y2="15.69"/>
    </g>
    <g stroke="#000000" stroke-width="1.0">
      <line x1="24.99" x2="24.79" y1="115.63" y2="96.63"/>
    </g>
    <g stroke="#000000" stroke-width="1.0">
      <line x1="48.15" x2="70.95" y1="136.11" y2="122.62"/>
    </g>
    <g stroke="#000000" stroke-width="1.0">
      <line x1="70.95" x2="94.03" y1="122.62" y2="135.62"/>
      <line x1="70.89" x2="88.20" y1="129.48" y2="139.22"/>
    </g>
    <g stroke="#000000" stroke-width="1.0">
      <line x1="173.54" x2="162.82" y1="46.47" y2="40.43"/>
      <line x1="171.58" x2="160.86" y1="49.95" y2="43.92"/>
    </g>
    <text fill="#000000" font-family="helvetica" font-size="12pt" x="179.30" y="60.17">O</text>
    <text fill="#000000" font-family="helvetica" font-size="12pt" x="133.30" y="60.67">NH</text>
    <text fill="#000000" font-family="helvetica" font-size="12pt" x="19.30" y="128.12">O</text>
    <g stroke="#000000" stroke-width="1.0">
      <line x1="342.32" x2="319.55" y1="80.15" y2="93.66"/>
    </g>
    <g stroke="#000000" stroke-width="1.0">
      <line x1="227.95" x2="227.78" y1="109.00" y2="94.64"/>
    </g>
    <g stroke="#000000" stroke-width="1.0">
      <line x1="273.95" x2="297.03" y1="120.64" y2="133.62"/>
      <line x1="273.89" x2="291.20" y1="127.49" y2="137.22"/>
    </g>
    <g stroke="#000000" stroke-width="1.0">
      <line x1="251.17" x2="235.00" y1="134.11" y2="125.02"/>
    </g>
    <g stroke="#000000" stroke-width="1.0">
      <line x1="251.43" x2="251.17" y1="160.60" y2="134.11"/>
      <line x1="257.40" x2="257.20" y1="157.22" y2="137.36"/>
    </g>
    <g stroke="#000000" stroke-width="1.0">
      <line x1="297.30" x2="274.52" y1="160.10" y2="173.61"/>
      <line x1="291.39" x2="274.30" y1="156.63" y2="166.76"/>
    </g>
    <g stroke="#000000" stroke-width="1.0">
      <line x1="319.81" x2="297.03" y1="120.15" y2="133.62"/>
    </g>
    <g stroke="#000000" stroke-width="1.0">
      <line x1="251.17" x2="273.95" y1="134.11" y2="120.64"/>
    </g>
    <g stroke="#000000" stroke-width="1.0">
      <line x1="274.52" x2="251.43" y1="173.61" y2="160.60"/>
    </g>
    <g stroke="#000000" stroke-width="1.0">
      <line x1="297.03" x2="297.30" y1="133.62" y2="160.10"/>
    </g>
    <g stroke="#000000" stroke-width="1.0">
      <line x1="319.55" x2="319.81" y1="93.66" y2="120.15"/>
    </g>
    <g stroke="#000000" stroke-width="1.0">
      <line x1="320.38" x2="343.19" y1="173.08" y2="159.61"/>
      <line x1="320.18" x2="337.29" y1="166.23" y2="156.13"/>
    </g>
    <g stroke="#000000" stroke-width="1.0">
      <line x1="335.00" x2="318.99" y1="49.68" y2="40.65"/>
    </g>
    <g stroke="#000000" stroke-width="1.0">
      <line x1="364.84" x2="349.00" y1="40.19" y2="49.56"/>
    </g>
    <g stroke="#000000" stroke-width="1.0">
      <line x1="342.89" x2="319.81" y1="133.12" y2="120.15"/>
      <line x1="337.07" x2="319.75" y1="136.73" y2="127.00"/>
    </g>
    <g stroke="#000000" stroke-width="1.0">
      <line x1="297.30" x2="320.38" y1="160.10" y2="173.08"/>
    </g>
    <g stroke="#000000" stroke-width="1.0">
      <line x1="342.14" x2="342.32" y1="62.00" y2="80.15"/>
    </g>
    <g stroke="#000000" stroke-width="1.0">
      <line x1="343.19" x2="342.89" y1="159.61" y2="133.12"/>
    </g>
    <text fill="#000000" font-family="helvetica" font-size="12pt" x="336.30" y="58.66">N</text>
    <text fill="#000000" font-family="helvetica" font-size="12pt" x="222.30" y="126.13">O</text>
    <g stroke="#000000" stroke-width="1.0">
      <line x1="466.04" x2="466.30" y1="133.61" y2="160.10"/>
    </g>
    <g stroke="#000000" stroke-width="1.0">
      <line x1="511.33" x2="488.55" y1="80.14" y2="93.65"/>
    </g>
    <g stroke="#000000" stroke-width="1.0">
      <line x1="420.18" x2="442.96" y1="134.10" y2="120.63"/>
    </g>
    <g stroke="#000000" stroke-width="1.0">
      <line x1="396.96" x2="396.79" y1="109.00" y2="94.64"/>
    </g>
    <g stroke="#000000" stroke-width="1.0">
      <line x1="533.85" x2="518.00" y1="40.19" y2="49.56"/>
    </g>
    <g stroke="#000000" stroke-width="1.0">
      <line x1="442.96" x2="466.04" y1="120.63" y2="133.61"/>
      <line x1="442.90" x2="460.21" y1="127.48" y2="137.22"/>
    </g>
    <g stroke="#000000" stroke-width="1.0">
      <line x1="443.52" x2="420.44" y1="173.61" y2="160.59"/>
    </g>
    <g stroke="#000000" stroke-width="1.0">
      <line x1="511.90" x2="488.82" y1="133.12" y2="120.14"/>
      <line x1="506.07" x2="488.76" y1="136.73" y2="126.99"/>
    </g>
    <g stroke="#000000" stroke-width="1.0">
      <line x1="420.18" x2="404.00" y1="134.10" y2="125.01"/>
    </g>
    <g stroke="#000000" stroke-width="1.0">
      <line x1="512.20" x2="511.90" y1="159.61" y2="133.12"/>
    </g>
    <g stroke="#000000" stroke-width="1.0">
      <line x1="420.44" x2="420.18" y1="160.59" y2="134.10"/>
      <line x1="426.41" x2="426.21" y1="157.22" y2="137.35"/>
    </g>
    <g stroke="#000000" stroke-width="1.0">
      <line x1="488.82" x2="466.04" y1="120.14" y2="133.61"/>
    </g>
    <g stroke="#000000" stroke-width="1.0">
      <line x1="488.55" x2="488.82" y1="93.65" y2="120.14"/>
    </g>
    <g stroke="#000000" stroke-width="1.0">
      <line x1="466.30" x2="443.52" y1="160.10" y2="173.61"/>
      <line x1="460.40" x2="443.31" y1="156.63" y2="166.76"/>
    </g>
    <g stroke="#000000" stroke-width="1.0">
      <line x1="466.30" x2="482.00" y1="160.10" y2="168.92"/>
    </g>
    <g stroke="#000000" stroke-width="1.0">
      <line x1="504.00" x2="487.99" y1="49.67" y2="40.64"/>
    </g>
    <g stroke="#000000" stroke-width="1.0">
      <line x1="511.15" x2="511.33" y1="62.00" y2="80.14"/>
    </g>
    <g stroke="#000000" stroke-width="1.0">
      <line x1="496.00" x2="512.20" y1="169.17" y2="159.61"/>
      <line x1="494.97" x2="507.13" y1="162.81" y2="155.64"/>
    </g>
    <text fill="#000000" font-family="helvetica" font-size="12pt" x="505.30" y="58.66">N</text>
    <text fill="#000000" font-family="helvetica" font-size="12pt" x="391.30" y="126.12">O</text>
    <text fill="#000000" font-family="helvetica" font-size="12pt" x="483.30" y="178.08">N</text>
    <g stroke="#000000" stroke-width="1.0">
      <line x1="570.96" x2="570.79" y1="109.00" y2="94.64"/>
    </g>
    <g stroke="#000000" stroke-width="1.0">
      <line x1="640.30" x2="663.39" y1="160.10" y2="173.08"/>
    </g>
    <g stroke="#000000" stroke-width="1.0">
      <line x1="685.33" x2="662.55" y1="80.14" y2="93.65"/>
    </g>
    <g stroke="#000000" stroke-width="1.0">
      <line x1="662.55" x2="662.82" y1="93.65" y2="120.14"/>
    </g>
    <g stroke="#000000" stroke-width="1.0">
      <line x1="707.85" x2="692.00" y1="40.19" y2="49.56"/>
    </g>
    <g stroke="#000000" stroke-width="1.0">
      <line x1="594.18" x2="616.96" y1="134.10" y2="120.63"/>
    </g>
    <g stroke="#000000" stroke-width="1.0">
      <line x1="685.90" x2="662.82" y1="133.12" y2="120.14"/>
      <line x1="680.07" x2="662.76" y1="136.73" y2="126.99"/>
    </g>
    <g stroke="#000000" stroke-width="1.0">
      <line x1="617.52" x2="594.44" y1="173.61" y2="160.59"/>
    </g>
    <g stroke="#000000" stroke-width="1.0">
      <line x1="678.00" x2="661.99" y1="49.67" y2="40.64"/>
    </g>
    <g stroke="#000000" stroke-width="1.0">
      <line x1="640.04" x2="640.30" y1="133.61" y2="160.10"/>
    </g>
    <g stroke="#000000" stroke-width="1.0">
      <line x1="686.07" x2="685.90" y1="148.00" y2="133.12"/>
    </g>
    <g stroke="#000000" stroke-width="1.0">
      <line x1="662.82" x2="640.04" y1="120.14" y2="133.61"/>
    </g>
    <g stroke="#000000" stroke-width="1.0">
      <line x1="594.18" x2="578.00" y1="134.10" y2="125.01"/>
    </g>
    <g stroke="#000000" stroke-width="1.0">
      <line x1="663.39" x2="679.00" y1="173.08" y2="163.86"/>
      <line x1="662.29" x2="674.00" y1="166.76" y2="159.84"/>
    </g>
    <g stroke="#000000" stroke-width="1.0">
      <line x1="594.44" x2="594.18" y1="160.59" y2="134.10"/>
      <line x1="600.41" x2="600.21" y1="157.22" y2="137.35"/>
    </g>
    <g stroke="#000000" stroke-width="1.0">
      <line x1="685.15" x2="685.33" y1="62.00" y2="80.14"/>
    </g>
    <g stroke="#000000" stroke-width="1.0">
      <line x1="640.30" x2="617.52" y1="160.10" y2="173.61"/>
      <line x1="634.40" x2="617.31" y1="156.63" y2="166.76"/>
    </g>
    <g stroke="#000000" stroke-width="1.0">
      <line x1="616.96" x2="640.04" y1="120.63" y2="133.61"/>
      <line x1="616.90" x2="634.21" y1="127.48" y2="137.22"/>
    </g>
    <text fill="#000000" font-family="helvetica" font-size="12pt" x="679.30" y="58.66">N</text>
    <text fill="#000000" font-family="helvetica" font-size="12pt" x="565.30" y="126.12">O</text>
    <text fill="#000000" font-family="helvetica" font-size="12pt" x="680.30" y="164.61">N</text>
    <g stroke="#000000" stroke-width="1.0">
      <line x1="594.46" x2="594.19" y1="334.59" y2="308.10"/>
      <line x1="600.42" x2="600.22" y1="331.22" y2="311.35"/>
    </g>
    <g stroke="#000000" stroke-width="1.0">
      <line x1="594.19" x2="578.00" y1="308.10" y2="299.00"/>
    </g>
    <g stroke="#000000" stroke-width="1.0">
      <line x1="570.97" x2="570.81" y1="283.00" y2="268.64"/>
    </g>
    <g stroke="#000000" stroke-width="1.0">
      <line x1="616.97" x2="640.05" y1="294.63" y2="307.61"/>
      <line x1="616.91" x2="634.23" y1="301.48" y2="311.22"/>
    </g>
    <g stroke="#000000" stroke-width="1.0">
      <line x1="686.08" x2="685.91" y1="322.00" y2="307.12"/>
    </g>
    <g stroke="#000000" stroke-width="1.0">
      <line x1="640.32" x2="656.00" y1="334.10" y2="342.92"/>
    </g>
    <g stroke="#000000" stroke-width="1.0">
      <line x1="662.83" x2="640.05" y1="294.14" y2="307.61"/>
    </g>
    <g stroke="#000000" stroke-width="1.0">
      <line x1="685.35" x2="662.57" y1="254.14" y2="267.65"/>
    </g>
    <g stroke="#000000" stroke-width="1.0">
      <line x1="640.32" x2="617.54" y1="334.10" y2="347.61"/>
      <line x1="634.41" x2="617.32" y1="330.63" y2="340.76"/>
    </g>
    <g stroke="#000000" stroke-width="1.0">
      <line x1="640.05" x2="640.32" y1="307.61" y2="334.10"/>
    </g>
    <g stroke="#000000" stroke-width="1.0">
      <line x1="662.57" x2="662.83" y1="267.65" y2="294.14"/>
    </g>
    <g stroke="#000000" stroke-width="1.0">
      <line x1="707.86" x2="692.00" y1="214.19" y2="223.56"/>
    </g>
    <g stroke="#000000" stroke-width="1.0">
      <line x1="685.16" x2="685.35" y1="236.00" y2="254.14"/>
    </g>
    <g stroke="#000000" stroke-width="1.0">
      <line x1="678.00" x2="662.00" y1="223.66" y2="214.64"/>
    </g>
    <g stroke="#000000" stroke-width="1.0">
      <line x1="594.19" x2="616.97" y1="308.10" y2="294.63"/>
    </g>
    <g stroke="#000000" stroke-linecap="butt" stroke-width="1.0">
      <line x1="670.00" x2="679.00" y1="343.18" y2="337.87"/>
      <line x1="668.07" x2="674.82" y1="337.35" y2="333.36"/>
    </g>
    <g stroke="#000000" stroke-width="1.0">
      <line x1="685.91" x2="662.83" y1="307.12" y2="294.14"/>
      <line x1="680.09" x2="662.78" y1="310.73" y2="300.99"/>
    </g>
    <g stroke="#000000" stroke-width="1.0">
      <line x1="617.54" x2="594.46" y1="347.61" y2="334.59"/>
    </g>
    <text fill="#000000" font-family="helvetica" font-size="12pt" x="679.30" y="232.66">N</text>
    <text fill="#000000" font-family="helvetica" font-size="12pt" x="565.30" y="300.12">O</text>
    <text fill="#000000" font-family="helvetica" font-size="12pt" x="680.30" y="338.61">N</text>
    <text fill="#000000" font-family="helvetica" font-size="12pt" x="657.30" y="352.08">N</text>
  </g>
</svg>