<?xml version="1.0" ?><svg height="297.000000mm" version="1.0" viewBox="0 0 794 1123" width="210.000000mm" xmlns="http://www.w3.org/2000/svg">
  <g font-family="Helvetica" font-size="12pt" stroke-linecap="round">
    <g stroke="#000000" stroke-width="1.0">
      <line x1="111.67" x2="88.63" y1="85.89" y2="98.91"/>
    </g>
    <g stroke="#000000" stroke-width="1.0">
      <line x1="88.63" x2="65.83" y1="98.91" y2="85.46"/>
    </g>
    <g stroke="#000000" stroke-width="1.0">
      <line x1="203.60" x2="180.80" y1="60.26" y2="46.82"/>
    </g>
    <g stroke="#000000" stroke-width="1.0">
      <line x1="364.18" x2="341.14" y1="48.50" y2="61.53"/>
    </g>
    <g stroke="#000000" stroke-width="1.0">
      <line x1="318.34" x2="295.29" y1="48.08" y2="61.11"/>
    </g>
    <g stroke="#000000" stroke-width="1.0">
      <line x1="341.14" x2="318.34" y1="61.53" y2="48.08"/>
    </g>
    <g stroke="#000000" stroke-width="1.0">
      <line x1="295.29" x2="272.49" y1="61.11" y2="47.66"/>
    </g>
    <g stroke="#000000" stroke-width="1.0">
      <polygon fill="#000000" points="65.82 59.43 42.00 47.70 44.54 43.40 66.32 58.56" stroke="#000000"/>
    </g>
    <g stroke="#000000" stroke-width="1.0">
      <line x1="226.65" x2="203.60" y1="47.24" y2="60.26"/>
    </g>
    <g stroke="#000000" stroke-width="1.0">
      <line x1="132.05" x2="131.28" y1="48.94" y2="47.57"/>
      <line x1="128.90" x2="127.85" y1="51.05" y2="49.18"/>
      <line x1="125.75" x2="124.41" y1="53.16" y2="50.79"/>
      <line x1="122.60" x2="120.98" y1="55.27" y2="52.41"/>
      <line x1="119.45" x2="117.55" y1="57.38" y2="54.02"/>
      <line x1="116.30" x2="114.12" y1="59.48" y2="55.63"/>
    </g>
    <g stroke="#000000" stroke-width="1.0">
      <line x1="66.07" x2="82.00" y1="59.00" y2="49.99"/>
    </g>
    <g stroke="#000000" stroke-width="1.0">
      <line x1="65.83" x2="66.07" y1="85.46" y2="59.00"/>
    </g>
    <g stroke="#000000" stroke-width="1.0">
      <line x1="249.45" x2="226.65" y1="60.68" y2="47.24"/>
    </g>
    <g stroke="#000000" stroke-width="1.0">
      <line x1="157.76" x2="134.96" y1="59.84" y2="46.39"/>
    </g>
    <g stroke="#000000" stroke-width="1.0">
      <line x1="101.03" x2="111.91" y1="53.00" y2="59.42"/>
    </g>
    <g stroke="#000000" stroke-width="1.0">
      <line x1="111.91" x2="111.67" y1="59.42" y2="85.89"/>
    </g>
    <g stroke="#000000" stroke-width="1.0">
      <line x1="180.80" x2="157.76" y1="46.82" y2="59.84"/>
    </g>
    <g stroke="#000000" stroke-width="1.0">
      <line x1="272.49" x2="249.45" y1="47.66" y2="60.68"/>
    </g>
    <text fill="#000000" font-family="helvetica" font-size="12pt" x="83.30" y="49.97">NH</text>
    <text fill="#000000" font-family="helvetica" font-size="12pt" textLength="96" x="51.00" y="142.75"><tspan>Solenopsin A</tspan></text>
    <text fill="#000000" font-family="helvetica" font-size="12pt" textLength="130" x="35.00" y="168.75"><tspan font-style="italic">Solenopsis invicta</tspan></text>
  </g>
</svg>